<?xml version="1.0" encoding="UTF-8"?>
<svg width="752pt" height="752pt" version="1.1" viewBox="0 0 752 752" xmlns="http://www.w3.org/2000/svg">
 <path d="m538.79 279.8h-69.559l-8.8789-44.398c-3.6992-17.02-18.5-29.598-36.258-29.598h-96.195c-17.758 0-32.559 12.578-36.258 29.598l-8.8789 44.398h-69.559c-24.418 0-44.398 19.98-44.398 44.398v29.598c0 8.1406 6.6602 14.801 14.801 14.801s14.801-6.6602 14.801-14.801v-29.598c0-8.1406 6.6602-14.801 14.801-14.801h81.398c7.3984 0 13.32-5.1797 14.801-11.84l11.098-56.238c0.73828-3.6992 3.6992-5.918 7.3984-5.918h96.938c3.6992 0 6.6602 2.2188 7.3984 5.918l11.098 56.238c1.4805 6.6602 7.3984 11.84 14.801 11.84h81.398c8.1406 0 14.801 6.6602 14.801 14.801v66.598h-91.023c-7.3984-42.18-43.66-73.996-87.316-73.996-43.66 0-80.656 31.82-87.316 73.996h-105.07c-8.1406 0-14.801 6.6602-14.801 14.801v96.195c0 24.418 19.98 44.398 44.398 44.398h325.59c24.418 0 44.398-19.98 44.398-44.398v-177.59c0-24.418-19.977-44.398-44.398-44.398zm-162.79 66.598c32.559 0 59.199 26.641 59.199 59.199 0 32.559-26.641 59.199-59.199 59.199s-59.199-26.641-59.199-59.199c0.003907-32.559 26.641-59.199 59.199-59.199zm162.79 170.2h-325.59c-8.1406 0-14.801-6.6602-14.801-14.801l0.003906-81.398h90.277c7.3984 42.18 43.66 73.996 87.316 73.996 43.66 0 80.656-31.82 87.316-73.996h90.273v81.398c0 8.1406-6.6602 14.801-14.801 14.801zm-177.59-111c0-8.1406 6.6602-14.801 14.801-14.801s14.801 6.6602 14.801 14.801c0 8.1406-6.6602 14.801-14.801 14.801-8.1406-0.003906-14.801-6.6641-14.801-14.801z" fill="#704c36"/>
</svg>
