<?xml version="1.0" encoding="UTF-8"?>
<svg width="752pt" height="752pt" version="1.1" viewBox="0 0 752 752" xmlns="http://www.w3.org/2000/svg">
 <defs>
  <clipPath id="a">
   <path d="m139.21 194h473.58v364h-473.58z"/>
  </clipPath>
 </defs>
 <g clip-path="url(#a)">
  <path d="m571 557.08h-390.01c-23.035 0-41.785-18.75-41.785-41.789v-278.57c0-23.039 18.75-41.789 41.785-41.789h390.01c23.039 0 41.789 18.75 41.789 41.789v278.57c0 23.039-18.75 41.789-41.789 41.789zm-390.01-334.29c-7.6875 0-13.926 6.2539-13.926 13.93v278.57c0 7.6758 6.2383 13.93 13.926 13.93h390.01c7.6914 0 13.93-6.2539 13.93-13.93v-278.57c0-7.6758-6.2383-13.93-13.93-13.93z" fill="#704c36" fill-rule="evenodd"/>
 </g>
 <path d="m445.64 361.1c-30.184 0-54.738-24.559-54.738-54.742 0-30.184 24.555-54.738 54.738-54.738 30.184 0 54.742 24.555 54.742 54.738 0 30.184-24.559 54.742-54.742 54.742zm0-83.574c-15.906 0-28.832 12.926-28.832 28.832 0 15.91 12.926 28.836 28.832 28.836s28.832-12.926 28.832-28.836c0-15.906-12.926-28.832-28.832-28.832z" fill="#704c36" fill-rule="evenodd"/>
 <path d="m520.33 552.58-227.96-214.56-130.41 121.1-17.633-18.984 148.16-137.57 245.62 231.16-17.773 18.859" fill="#704c36" fill-rule="evenodd"/>
 <path d="m590.73 481.86-75.441-61.312-63.781 51.828-16.352-20.098 80.133-65.105 91.793 74.574-16.352 20.113" fill="#704c36" fill-rule="evenodd"/>
</svg>
