<?xml version="1.0" encoding="UTF-8"?>
<svg width="752pt" height="752pt" version="1.1" viewBox="0 0 752 752" xmlns="http://www.w3.org/2000/svg">
 <g fill="#704c36">
  <path d="m480.82 448.3c-6.5234 0-13.051-0.84375-19.574-2.6328-19.574-5.2617-35.887-17.785-46.094-35.359-10.105-17.469-12.84-37.887-7.5781-57.461 5.2617-19.574 17.785-35.887 35.359-46.094 17.574-10.102 37.992-12.84 57.566-7.5781 40.414 10.84 64.512 52.516 53.672 92.926-9.1562 33.891-39.887 56.199-73.352 56.199zm-0.10547-141.23c-11.367 0-22.52 2.9453-32.625 8.8398-15.156 8.7344-25.891 22.836-30.414 39.676-4.5234 16.84-2.2109 34.52 6.5234 49.566 8.7344 15.051 22.836 25.891 39.676 30.414 34.836 9.3672 70.723-11.367 80.086-46.199 9.3672-34.836-11.367-70.723-46.199-80.086-5.5742-1.4766-11.363-2.2109-17.047-2.2109z"/>
  <path d="m481.03 470.3c-8.5234 0-17.051-1.1562-25.469-3.3672-25.258-6.7344-46.305-22.941-59.355-45.57-26.941-46.727-10.945-106.61 35.781-133.55 22.625-13.051 48.938-16.523 74.195-9.7891 25.258 6.7344 46.305 22.941 59.355 45.57 13.051 22.625 16.523 48.938 9.7891 74.195-6.7344 25.258-22.941 46.305-45.57 59.355-15.051 8.7344-31.781 13.156-48.727 13.156zm-43.781-173.44c-41.676 24.102-55.988 77.562-31.992 119.24 16.102 27.992 45.57 43.676 75.773 43.676 14.84 0 29.781-3.7891 43.465-11.684 20.207-11.684 34.625-30.52 40.621-53.043 6-22.52 2.9453-46.094-8.7344-66.195-11.684-20.207-30.52-34.625-53.043-40.621-22.414-6.1016-45.883-3.0508-66.09 8.6289z"/>
  <path d="m538.39 477.35c-1.7891 0-3.5781-0.94531-4.5234-2.6328l-11.262-19.469c-1.4727-2.5273-0.63281-5.7891 1.8945-7.1562 2.5273-1.4727 5.7891-0.63281 7.1562 1.8945l11.262 19.469c1.4727 2.5273 0.63281 5.7891-1.8945 7.1562-0.84375 0.52734-1.7891 0.73828-2.6328 0.73828z"/>
  <path d="m575.01 572.06c-1.3672 0-2.8398-0.21094-4.2109-0.52734-4.2109-1.1562-7.6836-3.7891-9.7891-7.5781l-34.836-60.301c-3.4727-6.1055-4.4219-13.262-2.6328-19.996 1.7891-6.8398 6.2109-12.523 12.312-16.102 12.629-7.2617 28.836-2.9453 36.098 9.6836l34.836 60.301c2.1055 3.6836 2.7344 8.1016 1.5781 12.312-1.1562 4.2109-3.7891 7.6836-7.5781 9.7891l-17.785 10.207c-2.4141 1.4766-5.2578 2.2109-7.9922 2.2109zm-33.992-95.453c-3.6836 2.1055-6.3125 5.5781-7.3672 9.6836-1.0508 4.1055-0.52734 8.418 1.5781 12.102l34.836 60.301c0.73828 1.2617 2 2.2109 3.4727 2.6328 1.4727 0.42188 2.9453 0.21094 4.3164-0.52734l17.785-10.207c1.2617-0.73828 2.2109-2 2.6328-3.4727 0.42187-1.4727 0.21094-3.0508-0.52734-4.3164l-34.836-60.301c-4.5273-7.5781-14.316-10.207-21.891-5.8945z"/>
  <path d="m553.54 545.96c-1.7891 0-3.5781-0.94531-4.5234-2.6328-1.4727-2.5273-0.63281-5.7891 1.8945-7.1562l36.621-21.258c2.5273-1.4727 5.7891-0.63281 7.1562 1.8945 1.3672 2.5273 0.63281 5.7891-1.8945 7.1562l-36.625 21.152c-0.83984 0.52734-1.7891 0.84375-2.6289 0.84375zm-16.102-27.891c-1.7891 0-3.5781-0.94531-4.5234-2.6328-1.4727-2.5273-0.63281-5.7891 1.8945-7.1562l36.625-21.152c2.5273-1.4727 5.7891-0.63281 7.1562 1.8945 1.4727 2.5273 0.63281 5.7891-1.8945 7.1562l-36.625 21.152c-0.84375 0.52734-1.6875 0.73828-2.6328 0.73828z"/>
  <path d="m471.24 572.06h-266.99c-12.207 0-22.102-9.8945-22.102-22.102v-307.93c0-12.207 9.8945-22.102 22.102-22.102h267c12.207 0 22.102 9.8945 22.102 22.102l-0.003906 38.203c0 2.9453-2.3164 5.2617-5.2617 5.2617-2.9453 0-5.2617-2.3164-5.2617-5.2617v-38.203c0-6.418-5.1562-11.578-11.578-11.578h-266.99c-6.418 0-11.578 5.1562-11.578 11.578v307.93c0 6.418 5.1562 11.578 11.578 11.578h267c6.418 0 11.578-5.1562 11.578-11.578v-85.246c0-2.9453 2.3164-5.2617 5.2617-5.2617 2.9453 0 5.2617 2.3164 5.2617 5.2617v85.246c-0.003906 12.207-9.8945 22.098-22.105 22.098z"/>
  <path d="m187.41 533.55h-21.574c-12.207 0-22.102-9.8945-22.102-22.102v-307.83c0-12.207 9.8945-22.102 22.102-22.102h267c12.207 0 22.102 9.8945 22.102 22.102v21.68c0 2.9453-2.3164 5.2617-5.2617 5.2617s-5.2617-2.3164-5.2617-5.2617l-0.003906-21.68c0-6.418-5.1562-11.578-11.578-11.578l-266.99 0.003907c-6.418 0-11.578 5.1562-11.578 11.578v307.93c0 6.418 5.1562 11.578 11.578 11.578h21.68c2.9453 0 5.2617 2.3164 5.2617 5.2617 0 2.9414-2.418 5.1523-5.3672 5.1523z"/>
  <path d="m295.07 360.85h-62.934c-12.418 0-22.52-10.102-22.52-22.52v-59.355c0-12.418 10.102-22.52 22.52-22.52h62.934c12.418 0 22.52 10.102 22.52 22.52v59.355c0.003906 12.414-10.102 22.52-22.52 22.52zm-62.934-93.875c-6.6289 0-11.996 5.3672-11.996 11.996v59.355c0 6.6289 5.3672 11.996 11.996 11.996h62.934c6.6289 0 11.996-5.3672 11.996-11.996v-59.355c0-6.6289-5.3672-11.996-11.996-11.996z"/>
  <path d="m418.62 274.23h-80.613c-2.9453 0-5.2617-2.3164-5.2617-5.2617 0-2.9453 2.3164-5.2617 5.2617-5.2617h80.613c2.9453 0 5.2617 2.3164 5.2617 5.2617 0 2.9453-2.3164 5.2617-5.2617 5.2617z"/>
  <path d="m382.74 313.91h-40.098c-2.9453 0-5.2617-2.3164-5.2617-5.2617 0-2.9453 2.3164-5.2617 5.2617-5.2617h40.098c2.9453 0 5.2617 2.3164 5.2617 5.2617 0 2.9453-2.3164 5.2617-5.2617 5.2617z"/>
  <path d="m369.05 353.59h-26.414c-2.9453 0-5.2617-2.3164-5.2617-5.2617 0-2.9453 2.3164-5.2617 5.2617-5.2617h26.414c2.9453 0 5.2617 2.3164 5.2617 5.2617 0 2.9453-2.3125 5.2617-5.2617 5.2617z"/>
  <path d="m358.21 400.84h-143.34c-2.9453 0-5.2617-2.3164-5.2617-5.2617s2.3164-5.2617 5.2617-5.2617h143.44c2.9453 0 5.2617 2.3164 5.2617 5.2617s-2.418 5.2617-5.3672 5.2617z"/>
  <path d="m358.21 434.52h-143.34c-2.9453 0-5.2617-2.3164-5.2617-5.2617 0-2.9453 2.3164-5.2617 5.2617-5.2617h143.44c2.9453 0 5.2617 2.3164 5.2617 5.2617 0 2.9453-2.418 5.2617-5.3672 5.2617z"/>
  <path d="m460.72 468.19h-245.84c-2.9453 0-5.2617-2.3164-5.2617-5.2617 0-2.9453 2.3164-5.2617 5.2617-5.2617h245.95c2.9453 0 5.2617 2.3164 5.2617 5.2617 0 2.9453-2.418 5.2617-5.3672 5.2617z"/>
  <path d="m460.72 501.87h-245.84c-2.9453 0-5.2617-2.3164-5.2617-5.2617 0-2.9453 2.3164-5.2617 5.2617-5.2617h245.95c2.9453 0 5.2617 2.3164 5.2617 5.2617 0 2.9492-2.418 5.2617-5.3672 5.2617z"/>
  <path d="m460.72 535.55h-245.84c-2.9453 0-5.2617-2.3164-5.2617-5.2617 0-2.9453 2.3164-5.2617 5.2617-5.2617h245.95c2.9453 0 5.2617 2.3164 5.2617 5.2617 0 2.9453-2.418 5.2617-5.3672 5.2617z"/>
 </g>
</svg>
