<?xml version="1.0" encoding="UTF-8"?>
<svg width="752pt" height="752pt" version="1.1" viewBox="0 0 752 752" xmlns="http://www.w3.org/2000/svg">
 <path d="m279.8 413h192.39c1.9609 0 3.8438-0.77734 5.2305-2.168 1.3867-1.3867 2.168-3.2695 2.168-5.2305v-177.59c0-1.9648-0.78125-3.8438-2.168-5.2344-1.3867-1.3867-3.2695-2.168-5.2305-2.1641h-192.39c-1.9609-0.003906-3.8438 0.77734-5.2305 2.1641-1.3906 1.3906-2.168 3.2695-2.168 5.2344v177.59c0 1.9609 0.77734 3.8438 2.168 5.2305 1.3867 1.3906 3.2695 2.168 5.2305 2.168zm155.39-177.59h29.598v29.598l-29.598 0.003906zm0 44.398h29.598v29.598h-29.598zm0 44.398h29.598v29.598h-29.598zm0 44.398h29.598v29.598h-29.598zm-103.6-133.2h88.797v162.79h-88.797zm-44.398 0h29.598v29.598l-29.598 0.003906zm0 44.398h29.598v29.598h-29.598zm0 44.398h29.598v29.598h-29.598zm0 44.398h29.598v29.598h-29.598zm258.99-184.99h-340.39c-1.9648 0-3.8438 0.77734-5.2344 2.168-1.3867 1.3867-2.168 3.2695-2.1641 5.2305v295.99c-0.003906 1.9648 0.77734 3.8477 2.1641 5.2344 1.3906 1.3867 3.2695 2.168 5.2344 2.168h147.99v29.598h-29.598c-1.9609 0-3.8438 0.77734-5.2344 2.168-1.3867 1.3867-2.1641 3.2695-2.1641 5.2305v29.598c0 1.9648 0.77734 3.8477 2.1641 5.2344 1.3906 1.3867 3.2734 2.168 5.2344 2.168h103.6c1.9609 0 3.8438-0.78125 5.2305-2.168 1.3906-1.3867 2.168-3.2695 2.168-5.2344v-29.598c0-1.9609-0.77734-3.8438-2.168-5.2305-1.3867-1.3906-3.2695-2.168-5.2305-2.168h-29.602v-29.598h148c1.9609 0 3.8438-0.78125 5.2305-2.168 1.3906-1.3867 2.168-3.2695 2.168-5.2344v-295.99c0-1.9609-0.77734-3.8438-2.168-5.2305-1.3867-1.3906-3.2695-2.168-5.2305-2.168zm-125.8 355.18v14.801h-88.797v-14.801zm-51.797-14.801v-29.594h14.801v29.598zm170.19-44.398-325.59 0.003906v-29.598h325.59zm0-44.398-325.59 0.003907v-236.79h325.59zm-184.99 29.602c0-1.9609 0.78125-3.8438 2.168-5.2305 1.3867-1.3906 3.2695-2.168 5.2344-2.168h29.598c4.0859 0 7.3984 3.3125 7.3984 7.3984s-3.3125 7.4023-7.3984 7.4023h-29.598c-1.9648 0-3.8477-0.78125-5.2344-2.168s-2.168-3.2695-2.168-5.2344zm11.84-176.11v0.003906c-2.2383-1.6836-5.2422-1.957-7.7461-0.70312-2.5078 1.2539-4.0938 3.8164-4.0938 6.6211v44.398c-0.039062 2.8125 1.5547 5.3945 4.0898 6.6172 2.5078 1.2695 5.5156 1 7.75-0.69922l29.598-22.199h0.003907c1.8633-1.3984 2.957-3.5898 2.957-5.918 0-2.3281-1.0938-4.5234-2.957-5.918zm2.9609 35.52v-14.801l9.8672 7.3984z" fill="#704c36"/>
</svg>
